<svg xmlns="http://www.w3.org/2000/svg" viewBox="0 0 1701.19 1423.54"><defs><style>.cls-1,.cls-2,.cls-3,.cls-4{stroke:#6363b1;}.cls-1,.cls-2,.cls-3,.cls-4,.cls-6{stroke-miterlimit:10;stroke-width:2px;}.cls-2{fill:#f3f3ff;}.cls-3{fill:#6363b1;}.cls-4{fill:#e7e7ff;}.cls-5,.cls-6{fill:#000222;}.cls-6{font-size:164.91px;stroke:#000222;font-family:Poppins-Bold, Poppins;font-weight:700;}.cls-7{font-family:Poppins-Regular, Poppins;font-weight:400;}</style></defs><title>Asset 3stranicaNijePronađena-MOBILE-praksa.ba</title><g id="Layer_2" data-name="Layer 2"><g id="Layer_1-2" data-name="Layer 1"><path class="cls-1" d="M1523.67,625.6c-13.14-21.23-26.14-42.55-39.46-63.67-5.22-8.28-13.07-15.45-16.19-24.36-3.2-9.11-2-19.74-2.81-29.7a9.3,9.3,0,0,0-.29-3c-.92-2.13-1.57-4.8-3.23-6.1-8.67-6.76-17.48-13.34-26.49-19.64Q1289,377,1142.74,274.88q-29.07-20.29-58-40.74h-3a23.82,23.82,0,0,1-3.19,1.14c-23.58,5-47.51,6.65-71.52,6.84-28.15.21-56.32-.22-84.48-.31-35-.12-70,.73-104.39,8.31-46.94,10.33-85.12,33.65-111.54,74.62a14.86,14.86,0,0,1-1.66,1.81c-2.63-2-5-3.79-7.4-5.57-22.38-16.61-47-28.31-74.4-33.91-39.09-8-77.22-3-114.81,8.75-43.56,13.66-83.53,34.89-122,59-30.33,19-59.92,39.22-90,58.61C289,418.14,283,423.8,280,431.78c-3.94,10.74-6.74,21.89-10.26,32.79a8.51,8.51,0,0,1-3.6,4.58c-8.11,4.31-15,9.78-19.47,18v5c1,1.51,2.09,3,3,4.54q45.95,75.94,92.11,151.73l9,.68q-26.21-42.8-52.19-85.76c-14.06-23.22-28-46.52-42.26-69.62-2.31-3.74-2.21-6.35.9-9s6.06-5.05,8.46-7c1.74,3.81,2.89,7.43,4.87,10.52Q322.78,569.54,375,650.91l10.31.77q-23.29-36.12-46.6-72.23c-20.42-31.63-41.09-63.09-61.46-94.75a12,12,0,0,1-1.64-8.17c2.76-12.65,5.68-25.29,9.33-37.71a29.85,29.85,0,0,1,11.83-16.71c5.44,7.82,11,15.27,16,23.1,41,64.3,81.83,128.76,123,193q5.82,9.09,11.65,18.16l10.17.76q-23.81-37.25-47.71-74.42c-34.8-54.05-70-107.87-105-161.78-.53-.81-1-1.64-1.65-2.66a25.77,25.77,0,0,1,2-1.71c39.31-26.31,78.29-53.15,119.8-76,32.78-18,66.57-33.65,103.07-42.71,37.42-9.28,74.75-10.81,111.91,1.24a180.08,180.08,0,0,1,67.9,40c40.55,37.78,76.77,79.63,113.22,121.25q66.69,76.15,133.75,152c9.38,10.59,19.75,20.31,29.65,30.44a13.22,13.22,0,0,1,1,1.24c-13.34-3.89-26.86-8.6-40.72-11.74-32.43-7.36-65.15-6.81-97.86-1.68-49.15,7.7-95.49,24.38-140.23,45.31l14.93,1.13a625.92,625.92,0,0,1,81.59-29.42c32.1-8.93,64.7-14.35,98.16-13.34,34.15,1,66.53,9.07,96.87,25,1,.5,1.83,1.17,2.59,1.66-9.09,3.58-18.17,6.7-26.86,10.68a67.37,67.37,0,0,0-24.88,19.67,7.48,7.48,0,0,1-4.24,2.61l10.94.83c8.81-10.9,20.71-17.4,33.87-21.92,22.88-7.86,46.36-10.57,70.41-6.74,2.13.34,4.59.47,6.23,1.64,4.76,3.39,8.32,1.21,12.5-1.33,44.89-27.25,93.82-43.35,145.34-52.2,58.11-10,116.74-10.26,175.44-9.6,26,.29,52-.07,78-.16,1.49,0,3-.15,4.65-.25l-13.19-48.26,2.2-1,43.1,68.22c-3.1,0-4.54,0-6,0-54.84-.7-109.66,0-164.37,4.18-56,4.25-111.77,10.84-166.09,26-13.77,3.83-27.25,8.76-40.66,13.75a126,126,0,0,0-33.39,18.66,150.4,150.4,0,0,1-29.92,17.92l13.91,1a178.43,178.43,0,0,0,22-13.89,129.64,129.64,0,0,1,24.79-14.61c43.46-18.94,89.62-27.48,136.22-33.92,61.16-8.46,122.71-11.5,184.39-11.92,23.81-.17,47.62.52,71.43.82v-1C1525.69,628.63,1524.63,627.15,1523.67,625.6ZM1001,648.54c-42.13-40-80-83.93-118.18-127.57q-64.2-73.35-129-146.18c-13.4-15-28.2-28.78-42.68-43.44a155.66,155.66,0,0,1,31.48-37.28c23.71-20.52,51.73-31.78,82.08-37.87,34.68-6.95,69.84-7.26,105-7.08,29,.15,58,.92,87-.16,21.06-.79,42-4.23,63.06-6.27a10.23,10.23,0,0,1,6.26,1.77c72.14,49.75,144.38,99.35,216.22,149.52,48.62,33.95,96.68,68.71,145,103.13,1.29.92,2.5,2,4.67,3.7-15.07,2.19-29,4.32-42.93,6.23-69.62,9.54-139.51,17.34-208.32,32.13-42.08,9.05-83.65,20-122.11,39.91a242.8,242.8,0,0,0-34.08,21.65c-17.79,13.4-30.89,30.62-37.66,53.15C1004.58,651.8,1002.78,650.2,1001,648.54Zm472.17-51h-17.56c-42.16-.07-84.33-.78-126.48,0-56.47,1-112.37,7-166.66,23.69a386.28,386.28,0,0,0-87,38.57c-2.52,1.54-4.56,1.62-7.38.78-16.49-4.84-33.28-3.93-50.07-2-1,.11-2,.29-3,.38a8.36,8.36,0,0,1-1.7-.34,81.61,81.61,0,0,1,16.25-33c15.3-19.26,35.48-32.06,57.24-42.6,34.08-16.53,70.33-26.53,107.1-34.8,44.89-10.1,90.34-16.85,135.89-23.11,41.74-5.73,83.45-11.67,125.17-17.52.66-.09,1.32-.11,2.75-.23C1459.16,537.67,1462.28,567.71,1473.21,597.55Z"/><path class="cls-2" d="M985.54,644c-13.34-3.89-26.86-8.6-40.72-11.74-32.43-7.36-65.15-6.81-97.86-1.68-49.15,7.7-95.49,24.38-140.23,45.31L457.52,657.13q-23.81-37.25-47.71-74.42c-34.8-54.05-70-107.87-105-161.78-.53-.81-1-1.64-1.65-2.66a25.77,25.77,0,0,1,2-1.71c39.31-26.31,78.29-53.15,119.8-76,32.78-18,66.57-33.65,103.07-42.71,37.42-9.28,74.75-10.81,111.91,1.24a180.08,180.08,0,0,1,67.9,40c40.55,37.78,76.77,79.63,113.22,121.25q66.69,76.15,133.75,152c9.38,10.59,19.75,20.31,29.65,30.44A13.22,13.22,0,0,1,985.54,644Z"/><path class="cls-2" d="M1452,500.81c-15.07,2.19-29,4.32-42.93,6.23-69.62,9.54-139.51,17.34-208.32,32.13-42.08,9.05-83.65,20-122.11,39.91a242.8,242.8,0,0,0-34.08,21.65c-17.79,13.4-30.89,30.62-37.66,53.15-2.27-2.08-4.07-3.68-5.81-5.34-42.13-40-80-83.93-118.18-127.57q-64.2-73.35-129-146.18c-13.4-15-28.2-28.78-42.68-43.44a155.66,155.66,0,0,1,31.48-37.28c23.71-20.52,51.73-31.78,82.08-37.87,34.68-6.95,69.84-7.26,105-7.08,29,.15,58,.92,87-.16,21.06-.79,42-4.23,63.06-6.27a10.23,10.23,0,0,1,6.26,1.77c72.14,49.75,144.38,99.35,216.22,149.52,48.62,33.95,96.68,68.71,145,103.13C1448.57,498,1449.78,499.08,1452,500.81Z"/><path class="cls-3" d="M270.63,488.15Q322.78,569.54,375,650.91l-24.1-1.82q-26.21-42.8-52.19-85.76c-14.06-23.22-28-46.52-42.26-69.62-2.31-3.74-2.21-6.35.9-9s6.06-5.05,8.46-7C267.5,481.44,268.65,485.06,270.63,488.15Z"/><path class="cls-3" d="M1514.36,623.12c-3.1,0-4.54,0-6,0-54.84-.7-109.66,0-164.37,4.18-56,4.25-111.77,10.84-166.09,26-13.77,3.83-27.25,8.76-40.66,13.75a126,126,0,0,0-33.39,18.66,150.4,150.4,0,0,1-29.92,17.92l-118.11-8.9c8.81-10.9,20.71-17.4,33.87-21.92,22.88-7.86,46.36-10.57,70.41-6.74,2.13.34,4.59.47,6.23,1.64,4.76,3.39,8.32,1.21,12.5-1.33,44.89-27.25,93.82-43.35,145.34-52.2,58.11-10,116.74-10.26,175.44-9.6,26,.29,52-.07,78-.16,1.49,0,3-.15,4.65-.25l-13.19-48.26,2.2-1Z"/><path class="cls-4" d="M1000.87,660.92c-9.09,3.58-18.17,6.7-26.86,10.68a67.37,67.37,0,0,0-24.88,19.67,7.48,7.48,0,0,1-4.24,2.61L721.66,677.05a625.92,625.92,0,0,1,81.59-29.42c32.1-8.93,64.7-14.35,98.16-13.34,34.15,1,66.53,9.07,96.87,25C999.24,659.76,1000.11,660.43,1000.87,660.92Z"/><path class="cls-4" d="M1473.21,597.55h-17.56c-42.16-.07-84.33-.78-126.48,0-56.47,1-112.37,7-166.66,23.69a386.28,386.28,0,0,0-87,38.57c-2.52,1.54-4.56,1.62-7.38.78-16.49-4.84-33.28-3.93-50.07-2-1,.11-2,.29-3,.38a8.36,8.36,0,0,1-1.7-.34,81.61,81.61,0,0,1,16.25-33c15.3-19.26,35.48-32.06,57.24-42.6,34.08-16.53,70.33-26.53,107.1-34.8,44.89-10.1,90.34-16.85,135.89-23.11,41.74-5.73,83.45-11.67,125.17-17.52.66-.09,1.32-.11,2.75-.23C1459.16,537.67,1462.28,567.71,1473.21,597.55Z"/><path class="cls-4" d="M447.35,656.37l-62.09-4.69q-23.29-36.12-46.6-72.23c-20.42-31.63-41.09-63.09-61.46-94.75a12,12,0,0,1-1.64-8.17c2.76-12.65,5.68-25.29,9.33-37.71a29.85,29.85,0,0,1,11.83-16.71c5.44,7.82,11,15.27,16,23.1,41,64.3,81.83,128.76,123,193Q441.52,647.3,447.35,656.37Z"/><path class="cls-5" d="M649.47,34.64C643.12,10.93,628.94,0,604.42,0H394.94q-87.63,0-175.25,0c-25,0-43.15,17.7-43.17,42.06q-.15,133,0,265.89a46.49,46.49,0,0,0,2.3,14c5.77,17.58,21.35,28,41.26,28.07q48.81,0,97.61,0H330.6q34.71,0,69.41-.06c3.43,0,5,.76,6.1,4.33a86.24,86.24,0,0,0,28.72,42.68c23.1,18.75,49.9,25.92,79.26,25,4.17-.14,8.09-.46,10.12-4.86s-.46-7.56-3.21-10.68a95.41,95.41,0,0,1-21.19-39c-1.48-5.53-2.32-11.22-3.54-17.34H606.85c17.87,0,31-7.9,39.09-23.82,1.84-3.63,2.76-7.74,4.09-11.64V35.34C649.85,35.11,649.54,34.91,649.47,34.64Zm-110.75,241c-6.61,13.34-17.61,20.41-32.52,21.27-1,.06-2,.08-3,.08h-95q-42.43,0-84.87,0c-10.58,0-19.8-3.13-27.66-10.35C283.84,275.75,280,257,287.59,242.78c14.86-27.86,30.06-55.55,45.13-83.28q23.37-43.07,46.83-86.11C389.79,54.57,411.19,47.68,430.47,57a35.66,35.66,0,0,1,15.92,15.4q45.45,83.42,90.71,166.92c2.59,4.8,3.83,10.34,5.7,15.54v7.59c-.5,1.63-.91,3.31-1.34,5A40.87,40.87,0,0,1,538.72,275.6Z"/><path class="cls-5" d="M398.07,168c0,12.47-.06,24.94,0,37.42.06,9.47,7.17,16.16,16.37,15.59a15,15,0,0,0,13.62-12.23,22.49,22.49,0,0,0,.34-4q0-36.78,0-73.55c0-7.48-3.8-13.25-10-15.41-10.19-3.52-20.18,3.71-20.29,14.79-.09,10.37,0,20.73,0,31.09Z"/><path class="cls-5" d="M398.08,251.43a15.16,15.16,0,0,0,30.32.16,15.16,15.16,0,1,0-30.32-.16Z"/><path d="M0,622.63C142,630,283.91,639,425.76,648.5s283.67,19.64,425.44,30.29,283.49,21.86,425.16,33.82,283.31,24.29,424.83,38.3c-142-7.37-283.91-16.33-425.77-25.85l-53.19-3.54L1169,717.85l-106.37-7.48-106.35-7.7L850,694.74Q637.35,678.68,424.83,660.9C283.15,649,141.52,636.62,0,622.63Z"/><text class="cls-6" transform="translate(523.33 926.81)">STRANICA<tspan class="cls-7"><tspan x="519.31" y="197.9">NIJE</tspan></tspan><tspan x="-193.28" y="395.79">PRONAĐENA</tspan></text></g></g></svg>
