<svg xmlns="http://www.w3.org/2000/svg" viewBox="0 0 2105.66 965.06"><defs><style>.cls-1,.cls-2,.cls-3,.cls-4{stroke:#6363b1;}.cls-1,.cls-2,.cls-3,.cls-4,.cls-6{stroke-miterlimit:10;stroke-width:2px;}.cls-2{fill:#f3f3ff;}.cls-3{fill:#6363b1;}.cls-4{fill:#e7e7ff;}.cls-5,.cls-6{fill:#000222;}.cls-6{font-size:164.91px;stroke:#000222;font-family:Poppins-Bold, Poppins;font-weight:700;}.cls-7{font-family:Poppins-Regular, Poppins;font-weight:400;}</style></defs><title>Asset 3stranicaNijePronađena-praksa.ba</title><g id="Layer_2" data-name="Layer 2"><g id="Layer_1-2" data-name="Layer 1"><path class="cls-1" d="M569.75,294.06c23.71-20.52,51.73-31.78,82.08-37.87,34.68-6.95,69.84-7.26,105-7.08,29,.15,58,.92,87-.16,21.06-.79,42-4.23,63.06-6.27a10.23,10.23,0,0,1,6.26,1.77q40.43,27.87,80.85,55.72l1.89-7.09-26.08-18.21q-29.07-20.3-58-40.74h-3a23.82,23.82,0,0,1-3.19,1.14c-23.58,5-47.51,6.65-71.52,6.84-28.15.21-56.32-.22-84.48-.31-35-.12-70,.73-104.39,8.31-46.94,10.33-85.12,33.65-111.54,74.62a14.86,14.86,0,0,1-1.66,1.81c-2.63-2-5-3.79-7.4-5.57s-5-3.62-7.52-5.33a183.92,183.92,0,0,0-66.88-28.58,193,193,0,0,0-40.35-3.9c-25.13.16-49.91,4.95-74.46,12.65A432.77,432.77,0,0,0,275.25,320a671.46,671.46,0,0,0-61.84,34.8q-14.4,9-28.63,18.38c-20.5,13.36-40.83,27-61.4,40.23-7.28,4.7-13.34,10.36-16.28,18.34-3.94,10.74-6.74,21.89-10.26,32.79a8.51,8.51,0,0,1-3.6,4.58c-8.11,4.31-15,9.78-19.47,18v5c1,1.51,2.09,3,3,4.54,83.33,137.73,166.37,275.65,256,409.46h1a24.51,24.51,0,0,1,2.81-1.92c60.06-29.52,119.74-59.83,180.29-88.31,65.91-31,133.67-57.44,204.49-75.27,14.45-3.63,28.75-8.14,44.09-7.69,29.37.88,58.61-1,87.49-6.83a260,260,0,0,0,29.53-7.72l2.21-8.3A257.19,257.19,0,0,1,851,719c-29.9,6-60.13,6.73-90.53,6.84-12.24,0-24.61,3.65-36.68,6.61-69.32,17-135.75,42.32-200.26,72.42-61.25,28.58-121.6,59.07-182.35,88.72-1.79.87-3.56,1.77-5.78,2.88-1.18-1.68-2.31-3.26-3.39-4.87C260.21,784.1,192.71,673.88,125.73,563.32c-14.06-23.22-28-46.52-42.26-69.62-2.31-3.74-2.21-6.35.9-9s6.06-5.05,8.46-7c1.74,3.81,2.89,7.43,4.87,10.52q90.45,141.15,181.14,282.15c21.68,33.59,44.31,66.56,66.52,99.8.63.94,1.44,1.76,2.45,3,11.63-6,23.19-11.81,34.69-17.79,47.88-24.87,95.42-50.4,143.69-74.51,57-28.49,116-52.28,178.3-66.76,23.31-5.42,47.12-8.71,70.69-13.06,1.66-.31,3.86-.9,4.68-2.12,9-13.43,22.17-21,36.91-26,22.88-7.86,46.36-10.57,70.41-6.74,2.13.34,4.59.47,6.23,1.64a10,10,0,0,0,2.25,1.24l2.1-7.88a12.37,12.37,0,0,1-2.55-.51c-16.49-4.84-33.28-3.93-50.07-2-1,.11-2,.29-3,.38a8.36,8.36,0,0,1-1.7-.34,81.61,81.61,0,0,1,16.25-33C872,606.29,892.2,593.49,914,583c1.76-.85,3.52-1.69,5.29-2.5l2.43-9.11q-8.1,3.63-16,7.73a242.8,242.8,0,0,0-34.08,21.65c-17.79,13.4-30.89,30.62-37.66,53.15-2.27-2.08-4.07-3.68-5.81-5.34-42.13-40-80-83.93-118.18-127.57q-64.2-73.35-129-146.18c-13.4-15-28.2-28.78-42.68-43.44A155.66,155.66,0,0,1,569.75,294.06ZM348.27,776.77c-.79,24.49-1.15,49-1.69,73.47,0,2.07-.32,4.14-.6,7.63-4.69-6.86-8.66-12.37-12.34-18.08q-84-130.15-167.91-260.35c-20.42-31.63-41.09-63.09-61.46-94.75a12,12,0,0,1-1.64-8.17c2.76-12.65,5.68-25.29,9.33-37.71a29.85,29.85,0,0,1,11.83-16.71c5.44,7.82,11,15.27,16,23.1,41,64.3,81.83,128.76,123,193,27.2,42.5,54.79,84.76,82.37,127A18.48,18.48,0,0,1,348.27,776.77ZM827.94,660.91c-9.09,3.58-18.17,6.7-26.86,10.68a67.37,67.37,0,0,0-24.88,19.67,7.48,7.48,0,0,1-4.41,2.64c-73.09,9.06-142.1,31.91-209.1,61.6-50,22.14-98.07,48-146.31,73.63-19.57,10.38-39.24,20.55-58.88,30.8-1.14.59-2.34,1.08-3.71,1.72,0-3.48-.06-6.56,0-9.63.58-25.33,1.13-50.65,1.92-76,.06-1.87,1.42-4.6,3-5.37C406.84,746.37,455,722,503.36,698.17c41-20.21,82.83-38.27,127-50.55,32.1-8.93,64.7-14.35,98.16-13.34,34.15,1,66.53,9.07,96.87,25C826.31,659.75,827.18,660.42,827.94,660.91ZM648.17,460.37q66.69,76.15,133.75,152c9.38,10.59,19.75,20.31,29.65,30.44a13.22,13.22,0,0,1,1,1.24c-13.34-3.89-26.86-8.6-40.72-11.74-32.43-7.36-65.15-6.81-97.86-1.68-50.81,8-98.61,25.52-144.75,47.44-45.12,21.42-89.49,44.41-134.21,66.66-13.55,6.74-27.18,13.31-41.21,20.17-1.45-2-2.77-3.64-3.9-5.41-37.69-58.92-75.21-118-113.08-176.76-34.8-54.05-70-107.87-105-161.78-.53-.81-1-1.64-1.65-2.66a25.77,25.77,0,0,1,2-1.71C154,402,175.63,387.3,197.64,373.19c17.8-11.4,35.86-22.41,54.43-32.62,13.35-7.34,26.87-14.28,40.67-20.55a362.56,362.56,0,0,1,62.4-22.16,236.38,236.38,0,0,1,53.36-7.35,179.21,179.21,0,0,1,108.57,33.91A184,184,0,0,1,535,339.12C575.5,376.9,611.72,418.75,648.17,460.37Z"/><path class="cls-2" d="M812.61,644c-13.34-3.89-26.86-8.6-40.72-11.74-32.43-7.36-65.15-6.81-97.86-1.68-50.81,8-98.61,25.52-144.75,47.44-45.12,21.42-89.49,44.41-134.21,66.66-13.55,6.74-27.18,13.31-41.21,20.17-1.45-2-2.77-3.64-3.9-5.41-37.69-58.92-75.21-118-113.08-176.76-34.8-54.05-70-107.87-105-161.78-.53-.81-1-1.64-1.65-2.66a25.77,25.77,0,0,1,2-1.71c39.31-26.31,78.29-53.15,119.8-76,32.78-18,66.57-33.65,103.07-42.71,37.42-9.28,74.75-10.81,111.91,1.24a180.08,180.08,0,0,1,67.9,40c40.55,37.78,76.77,79.63,113.22,121.25q66.69,76.15,133.75,152c9.38,10.59,19.75,20.31,29.65,30.44A13.22,13.22,0,0,1,812.61,644Z"/><path class="cls-2" d="M994,300.17,921.68,571.34q-8.1,3.63-16,7.73a242.8,242.8,0,0,0-34.08,21.65c-17.79,13.4-30.89,30.62-37.66,53.15-2.27-2.08-4.07-3.68-5.81-5.34-42.13-40-80-83.93-118.18-127.57q-64.2-73.35-129-146.18c-13.4-15-28.2-28.78-42.68-43.44a155.66,155.66,0,0,1,31.48-37.28c23.71-20.52,51.73-31.78,82.08-37.87,34.68-6.95,69.84-7.26,105-7.08,29,.15,58,.92,87-.16,21.06-.79,42-4.23,63.06-6.27a10.23,10.23,0,0,1,6.26,1.77Q953.58,272.32,994,300.17Z"/><path class="cls-3" d="M895.66,668.92l-11,41.17A257.19,257.19,0,0,1,851,719c-29.9,6-60.13,6.73-90.53,6.84-12.24,0-24.61,3.65-36.68,6.61-69.32,17-135.75,42.32-200.26,72.42-61.25,28.58-121.6,59.07-182.35,88.72-1.79.87-3.56,1.77-5.78,2.88-1.18-1.68-2.31-3.26-3.39-4.87C260.21,784.1,192.71,673.88,125.73,563.32c-14.06-23.22-28-46.52-42.26-69.62-2.31-3.74-2.21-6.35.9-9s6.06-5.05,8.46-7c1.74,3.81,2.89,7.43,4.87,10.52q90.45,141.15,181.14,282.15c21.68,33.59,44.31,66.56,66.52,99.8.63.94,1.44,1.76,2.45,3,11.63-6,23.19-11.81,34.69-17.79,47.88-24.87,95.42-50.4,143.69-74.51,57-28.49,116-52.28,178.3-66.76,23.31-5.42,47.12-8.71,70.69-13.06,1.66-.31,3.86-.9,4.68-2.12,9-13.43,22.17-21,36.91-26,22.88-7.86,46.36-10.57,70.41-6.74,2.13.34,4.59.47,6.23,1.64A10,10,0,0,0,895.66,668.92Z"/><path class="cls-4" d="M827.94,660.92c-9.09,3.58-18.17,6.7-26.86,10.68a67.37,67.37,0,0,0-24.88,19.67,7.48,7.48,0,0,1-4.41,2.64c-73.09,9.06-142.1,31.91-209.1,61.6-50,22.14-98.07,48-146.31,73.63-19.57,10.38-39.24,20.55-58.88,30.8-1.14.59-2.34,1.08-3.71,1.72,0-3.48-.06-6.56,0-9.63.58-25.33,1.13-50.65,1.92-76,.06-1.87,1.42-4.6,3-5.37,48.16-24.32,96.3-48.65,144.68-72.52,41-20.21,82.83-38.27,127-50.55,32.1-8.93,64.7-14.35,98.16-13.34,34.15,1,66.53,9.07,96.87,25C826.31,659.76,827.18,660.43,827.94,660.92Z"/><path class="cls-4" d="M919.25,580.45,897.76,661a12.37,12.37,0,0,1-2.55-.51c-16.49-4.84-33.28-3.93-50.07-2-1,.11-2,.29-3,.38a8.36,8.36,0,0,1-1.7-.34,81.61,81.61,0,0,1,16.25-33C872,606.29,892.2,593.49,914,583,915.72,582.1,917.48,581.26,919.25,580.45Z"/><path class="cls-4" d="M348.27,776.78c-.79,24.49-1.15,49-1.69,73.47,0,2.07-.32,4.14-.6,7.63-4.69-6.86-8.66-12.37-12.34-18.08q-84-130.15-167.91-260.35c-20.42-31.63-41.09-63.09-61.46-94.75a12,12,0,0,1-1.64-8.17c2.76-12.65,5.68-25.29,9.33-37.71a29.85,29.85,0,0,1,11.83-16.71c5.44,7.82,11,15.27,16,23.1,41,64.3,81.83,128.76,123,193,27.2,42.5,54.79,84.76,82.37,127A18.48,18.48,0,0,1,348.27,776.78Z"/><path class="cls-5" d="M473,34.64C466.66,10.93,452.48,0,428,0H218.48Q130.85,0,43.23.05C18.27.09.08,17.75.06,42.11Q-.09,175.07.11,308a46.49,46.49,0,0,0,2.3,14c5.77,17.58,21.35,28,41.26,28.07q48.81,0,97.61,0h12.86q34.71,0,69.41-.06c3.43,0,5,.76,6.1,4.33a86.24,86.24,0,0,0,28.72,42.68c23.1,18.75,49.9,25.92,79.26,25,4.17-.14,8.09-.46,10.12-4.86s-.46-7.56-3.21-10.68a95.41,95.41,0,0,1-21.19-39c-1.48-5.53-2.32-11.22-3.54-17.34H430.39c17.87,0,31-7.9,39.09-23.82,1.84-3.63,2.76-7.74,4.09-11.64V35.34C473.39,35.11,473.08,34.91,473,34.64Zm-110.75,241c-6.61,13.34-17.61,20.41-32.52,21.27-1,.06-2,.08-3,.08h-95q-42.43,0-84.87,0c-10.58,0-19.8-3.13-27.66-10.35-11.84-10.88-15.64-29.67-8.09-43.85,14.86-27.86,30.06-55.55,45.13-83.28q23.37-43.07,46.83-86.11C213.33,54.57,234.73,47.68,254,57a35.66,35.66,0,0,1,15.92,15.4q45.45,83.42,90.71,166.92c2.59,4.8,3.83,10.34,5.7,15.54v7.59c-.5,1.63-.91,3.31-1.34,5A40.87,40.87,0,0,1,362.26,275.6Z"/><path class="cls-5" d="M221.61,168c0,12.47-.06,24.94,0,37.42.06,9.47,7.17,16.16,16.36,15.59a15,15,0,0,0,13.62-12.23,21.61,21.61,0,0,0,.34-4q0-36.78,0-73.55c0-7.48-3.8-13.25-10.05-15.41-10.19-3.52-20.18,3.71-20.28,14.79-.1,10.37,0,20.73,0,31.09Z"/><path class="cls-5" d="M221.62,251.43a15.16,15.16,0,1,0,15.11-15.16A15.35,15.35,0,0,0,221.62,251.43Z"/><path class="cls-5" d="M816.69,965.06c18.2-81.07,37.92-161.73,58.17-242.25S916,561.92,937.31,481.7s43.27-160.31,65.88-240.2,45.59-159.69,70.2-239c-18.17,81.08-37.88,161.75-58.14,242.27s-41.1,160.88-62.48,241.1S909.49,646.12,886.88,726,841.28,885.7,816.69,965.06Z"/><text class="cls-6" transform="translate(1063.58 304.96)">STRANICA<tspan class="cls-7"><tspan x="0" y="197.9">NIJE</tspan></tspan><tspan x="0" y="395.79">PRONAĐENA</tspan></text></g></g></svg>
